<svg xmlns="http://www.w3.org/2000/svg" version="1.1" xmlns:xlink="http://www.w3.org/1999/xlink" xmlns:svgjs="http://svgjs.dev/svgjs" width="1920" height="1080" preserveAspectRatio="none" viewBox="0 0 1920 1080"><g mask="url(&quot;#SvgjsMask1101&quot;)" fill="none"><rect width="1920" height="1080" x="0" y="0" fill="rgba(144, 173, 198, 1)"></rect><path d="M0,412.458C99.978,412.472,204.465,502.867,291.062,452.902C376.938,403.353,379.011,279.332,399.024,182.228C415.452,102.521,403.284,24.111,396.146,-56.957C388.549,-143.239,393.873,-230.515,355.832,-308.33C310.207,-401.661,259.871,-516.594,159.102,-541.852C57.925,-567.213,-31.378,-473.004,-125.996,-429.103C-205.536,-392.198,-288.297,-365.306,-351.776,-304.816C-419.855,-239.943,-476.607,-162.884,-500.751,-71.997C-526.697,25.672,-530.004,131.077,-492.501,224.918C-454.093,321.024,-387.733,415.991,-291.011,452.822C-197.597,488.393,-99.957,412.444,0,412.458" fill="#527ca0"></path><path d="M1920 1698.5230000000001C2049.877 1701.412 2183.5190000000002 1728.315 2300.965 1672.792 2425.679 1613.833 2521.263 1506.004 2585.4809999999998 1383.915 2652.024 1257.405 2688.609 1113.898 2669.444 972.246 2650.195 829.973 2575.901 701.5509999999999 2478.8450000000003 595.758 2383.601 491.93899999999996 2263.611 408.23800000000006 2125.678 379.52700000000004 1993.054 351.92100000000005 1851.009 375.29600000000005 1732.179 440.34000000000003 1624.566 499.244 1570.877 616.729 1504.1979999999999 719.7049999999999 1446.537 808.755 1401.15 899.634 1369.26 1000.816 1331.6399999999999 1120.179 1268.4009999999998 1241.74 1301.6399999999999 1362.396 1336.3809999999999 1488.5059999999999 1434.849 1593.6100000000001 1549.775 1656.0810000000001 1661.166 1716.6309999999999 1793.247 1695.703 1920 1698.5230000000001" fill="#d2dde8"></path></g><defs><mask id="SvgjsMask1101"><rect width="1920" height="1080" fill="#ffffff"></rect></mask></defs></svg>